<?xml version="1.0" standalone="no"?>
<!DOCTYPE svg PUBLIC "-//W3C//DTD SVG 20010904//EN"
 "http://www.w3.org/TR/2001/REC-SVG-20010904/DTD/svg10.dtd">
<svg version="1.0" xmlns="http://www.w3.org/2000/svg"
 width="348.000000pt" height="348.000000pt" viewBox="0 0 348.000000 348.000000"
 preserveAspectRatio="xMidYMid meet">

<g transform="translate(0.000000,348.000000) scale(0.100000,-0.100000)"
fill="#000000" stroke="none">
<path d="M2967 3117 c-60 -19 -101 -60 -145 -145 -46 -87 -83 -213 -107 -362
-8 -52 -18 -109 -20 -127 l-6 -31 -65 39 c-146 89 -285 130 -454 135 l-125 4
-89 195 c-50 107 -92 195 -95 195 -3 0 -42 -104 -86 -231 -44 -127 -82 -232
-85 -234 -3 -2 -79 41 -170 95 l-165 98 -6 -182 c-4 -99 -7 -195 -8 -212 l-1
-31 -152 -7 c-84 -4 -153 -8 -155 -10 -2 -1 15 -47 37 -101 l40 -98 -137 -141
c-75 -78 -155 -160 -178 -184 l-42 -44 -308 151 c-170 83 -310 150 -311 148
-2 -1 65 -116 147 -255 l150 -253 -122 -130 c-67 -71 -120 -131 -118 -133 2
-3 55 -8 117 -12 61 -4 112 -11 112 -15 0 -5 -58 -95 -130 -200 -71 -105 -130
-193 -130 -195 0 -2 164 95 365 216 l364 219 291 -142 c159 -77 290 -144 290
-147 0 -3 -21 -13 -47 -22 -241 -80 -278 -96 -253 -106 14 -5 63 -24 110 -42
47 -18 89 -36 93 -40 5 -4 -37 -38 -93 -76 l-102 -69 43 -7 c24 -3 101 -7 172
-7 70 -1 127 -4 127 -8 0 -5 -7 -73 -15 -152 -8 -80 -13 -146 -12 -148 2 -1
90 103 197 233 106 129 197 237 200 239 4 3 137 -58 295 -136 158 -77 291
-138 296 -137 7 3 94 113 672 851 l218 278 -27 47 c-15 26 -33 55 -39 65 -14
20 36 81 -594 -718 -139 -176 -257 -321 -261 -323 -5 -2 -85 35 -178 82 l-170
85 26 53 c15 29 27 54 28 56 1 2 58 -25 128 -60 110 -55 128 -61 140 -48 8 8
190 237 405 509 l390 494 -47 68 c-73 105 -205 260 -288 338 l-75 72 16 122
c37 281 100 470 172 508 49 26 111 -60 139 -194 l15 -71 -35 -31 c-45 -39 -56
-63 -56 -123 0 -150 192 -212 283 -90 31 41 34 118 7 165 -12 22 -34 47 -49
56 -25 14 -29 24 -34 79 -21 217 -164 377 -300 335z m-227 -1081 l35 -13 -32
-7 c-38 -9 -80 -46 -88 -78 -22 -86 105 -151 193 -98 l32 20 0 -35 c0 -74 -50
-149 -124 -187 -31 -16 -53 -19 -106 -16 -78 4 -124 29 -167 92 -38 53 -45
154 -15 212 53 103 165 149 272 110z m-665 -82 l54 -15 -16 -52 c-8 -29 -28
-95 -44 -147 -15 -52 -25 -98 -21 -101 4 -3 70 -57 147 -119 77 -62 146 -119
154 -126 12 -11 9 -20 -23 -59 -21 -25 -42 -45 -48 -43 -18 6 -377 303 -378
313 -1 23 105 365 113 365 5 0 33 -7 62 -16z m-299 -175 c24 -6 44 -15 44 -19
0 -4 -13 -50 -29 -103 l-29 -97 113 -92 114 -91 -19 -26 c-56 -75 -56 -75 -77
-60 -56 41 -273 223 -273 229 0 4 9 36 19 71 11 35 29 97 41 137 17 58 25 72
37 68 9 -4 35 -11 59 -17z"/>
</g>
</svg>
